<svg id="Layer_1" data-name="Layer 1" xmlns="http://www.w3.org/2000/svg" viewBox="0 0 355.73 93.07"><defs><style>.cls-1,.cls-2{fill:#231f20;}.cls-2{font-size:82.89px;font-family:MicrosoftYaHei, Microsoft YaHei;}.cls-3{letter-spacing:-0.04em;}</style></defs><path class="cls-1" d="M86.85,50.23a9.69,9.69,0,1,1-19.38,0,2.09,2.09,0,0,1,0-.25L54.91,47a12.38,12.38,0,0,1-5.09,5.27l5.29,18.45a8.77,8.77,0,0,1,1.15-.07,9.69,9.69,0,1,1-5.47,1.69L45.45,53.73a11.91,11.91,0,0,1-1.59.1,12.29,12.29,0,0,1-8.16-3.08L19.64,61.67a9.56,9.56,0,0,1,.74,3.71A9.69,9.69,0,1,1,16.92,58L32.85,47.13a12.35,12.35,0,0,1,1.3-13.42L25.2,22.21a9.69,9.69,0,1,1,3.68-2.77L37.64,30.7a12.36,12.36,0,0,1,12.63.11L63,15.25a7.1,7.1,0,1,1,6.16,3.56,6.92,6.92,0,0,1-2.7-.54L53.7,33.88a12.28,12.28,0,0,1,2.56,7.54,12.1,12.1,0,0,1-.06,1.21l12.48,2.91a9.69,9.69,0,0,1,18.17,4.69Z"/><text class="cls-2" transform="translate(91.92 68.08)"><tspan class="cls-3">P</tspan><tspan x="47.4" y="0">oppy</tspan></text></svg>